<?xml version="1.0" encoding="UTF-8" standalone="no"?>
<!DOCTYPE svg PUBLIC "-//W3C//DTD SVG 1.1//EN" "http://www.w3.org/Graphics/SVG/1.1/DTD/svg11.dtd">
<svg version="1.1" xmlns="http://www.w3.org/2000/svg" xmlns:xlink="http://www.w3.org/1999/xlink" preserveAspectRatio="xMidYMid meet" viewBox="0 0 480 390" width="480" height="390"><defs><path d="M103.27 7.78C51.23 7.78 8.89 50.12 8.89 102.16C8.89 116.74 8.89 233.36 8.89 247.93C8.89 289.46 36.15 325.63 75.66 337.21C80.22 341.77 116.68 378.23 121.24 382.79C123.77 385.32 127.2 386.74 130.78 386.74C134.35 386.74 137.78 385.32 140.31 382.79C143.1 380.01 157.04 366.07 182.13 340.97C297.69 340.97 361.89 340.97 374.73 340.97C426.77 340.97 469.11 298.64 469.11 246.59C469.11 232.15 469.11 116.6 469.11 102.16C469.11 50.12 426.77 7.78 374.73 7.78C320.44 7.78 130.42 7.78 103.27 7.78ZM153.39 184.72C170.51 184.72 307.49 184.72 324.61 184.72C332.06 184.72 338.09 190.76 338.09 198.21C338.09 205.65 332.06 211.69 324.61 211.69C307.49 211.69 170.51 211.69 153.39 211.69C145.94 211.69 139.91 205.65 139.91 198.21C139.91 190.76 145.94 184.72 153.39 184.72ZM153.39 164.03C145.94 164.03 139.91 157.99 139.91 150.55C139.91 143.1 145.94 137.06 153.39 137.06C170.51 137.06 307.49 137.06 324.61 137.06C332.06 137.06 338.09 143.1 338.09 150.55C338.09 157.99 332.06 164.03 324.61 164.03C290.37 164.03 170.51 164.03 153.39 164.03Z" id="c4dBIueWLJ"></path><path d="M120.93 63.4L364.19 63.4L364.19 281.5L120.93 281.5L120.93 63.4Z" id="fmmpk8rNm"></path><path d="M224.6 169.18C227.81 169.17 230.42 171.77 230.43 174.97C230.45 181.18 232.89 187.01 237.29 191.39C241.7 195.76 247.54 198.16 253.75 198.14C260.9 198.12 318.08 197.93 325.23 197.91C325.23 197.9 325.23 197.91 325.23 197.91C326.98 197.9 340.92 197.85 342.66 197.85C355.48 197.8 365.87 187.34 365.83 174.53C365.79 161.71 355.33 151.32 342.51 151.36C337.97 151.37 301.69 151.49 297.15 151.51C296 147.12 294.52 142.81 292.72 138.59C287.99 127.54 281.26 117.62 272.69 109.12C269.29 105.74 265.67 102.65 261.85 99.87C264.8 99.5 267.81 99.31 270.86 99.3C278.01 99.27 335.19 99.09 342.34 99.06C383.99 98.92 417.99 132.7 418.13 174.36C418.2 195.18 409.79 214.1 396.16 227.82C382.52 241.55 363.67 250.08 342.84 250.15C335.69 250.17 278.51 250.36 271.36 250.38C229.71 250.52 195.71 216.74 195.57 175.09C195.56 173.09 195.6 171.16 195.67 169.28C201.46 169.26 221.71 169.19 224.6 169.18Z" id="c17t8H1hQG"></path><path d="M135.46 99.74C142.61 99.72 199.79 99.53 206.94 99.51C248.6 99.37 282.6 133.15 282.73 174.8C282.74 176.75 282.67 178.69 282.53 180.61C279.65 180.62 256.58 180.7 253.7 180.71C252.12 180.71 250.7 180.13 249.58 179.02C248.47 177.91 247.87 176.49 247.87 174.92C247.82 162.1 237.36 151.71 224.55 151.75C215.66 151.78 144.53 152.01 135.64 152.04C129.43 152.06 123.6 154.5 119.22 158.9C114.85 163.31 112.45 169.15 112.47 175.36C112.51 188.18 122.97 198.57 135.79 198.53C140.33 198.51 176.62 198.4 181.15 198.38C182.3 202.77 183.78 207.08 185.58 211.3C190.31 222.35 197.05 232.27 205.61 240.77C209.01 244.15 212.64 247.24 216.46 250.03C213.49 250.39 210.48 250.58 207.44 250.59C200.29 250.62 143.11 250.81 135.96 250.83C94.31 250.97 60.31 217.19 60.17 175.53C60.03 133.88 93.81 99.88 135.46 99.74Z" id="d2fx8H6PrM"></path></defs><g><g><g><g><use xlink:href="#c4dBIueWLJ" opacity="1" fill="#fcec0c" fill-opacity="1"></use><g><use xlink:href="#c4dBIueWLJ" opacity="1" fill-opacity="0" stroke="#000000" stroke-width="1" stroke-opacity="0"></use></g></g><g><use xlink:href="#fmmpk8rNm" opacity="1" fill="#fcec0c" fill-opacity="1"></use></g></g><g><g><use xlink:href="#c17t8H1hQG" opacity="1" fill="#000000" fill-opacity="1"></use></g><g><use xlink:href="#d2fx8H6PrM" opacity="1" fill="#000000" fill-opacity="1"></use></g></g></g></g></svg>